<svg data-v-fde0c5aa="" xmlns="http://www.w3.org/2000/svg" viewBox="0 0 300 300" class="iconLeft"><!----><defs data-v-fde0c5aa=""><!----></defs><rect data-v-fde0c5aa="" fill="transparent" x="0" y="0" width="300px" height="300px" class="logo-background-square"></rect><defs data-v-fde0c5aa=""><!----></defs><g data-v-fde0c5aa="" id="163bf7ee-7ef2-497d-9d4e-798687cb73cc" fill="#000000" transform="matrix(2.157841205596924,0,0,2.157841205596924,76.47392650008089,131.83114630831417)"><path d="M5.63 5.84L5.63 5.84Q6.66 5.84 7.51 6.31L7.51 6.31L7.51 6.31Q8.36 6.79 8.86 7.68L8.86 7.68L8.86 7.68Q9.35 8.57 9.35 9.74L9.35 9.74L9.35 9.74Q9.35 10.92 8.86 11.82L8.86 11.82L8.86 11.82Q8.36 12.71 7.51 13.20L7.51 13.20L7.51 13.20Q6.66 13.68 5.63 13.68L5.63 13.68L5.63 13.68Q4.13 13.68 3.39 12.80L3.39 12.80L3.39 13.55L0.85 13.55L0.85 3.16L3.51 3.16L3.51 6.62L3.51 6.62Q4.28 5.84 5.63 5.84L5.63 5.84ZM5.07 11.56L5.07 11.56Q5.77 11.56 6.22 11.08L6.22 11.08L6.22 11.08Q6.66 10.60 6.66 9.74L6.66 9.74L6.66 9.74Q6.66 8.90 6.22 8.43L6.22 8.43L6.22 8.43Q5.77 7.95 5.07 7.95L5.07 7.95L5.07 7.95Q4.37 7.95 3.92 8.43L3.92 8.43L3.92 8.43Q3.47 8.90 3.47 9.74L3.47 9.74L3.47 9.74Q3.47 10.60 3.92 11.08L3.92 11.08L3.92 11.08Q4.37 11.56 5.07 11.56L5.07 11.56ZM14.39 13.68L14.39 13.68Q13.17 13.68 12.19 13.17L12.19 13.17L12.19 13.17Q11.21 12.67 10.66 11.77L10.66 11.77L10.66 11.77Q10.11 10.88 10.11 9.74L10.11 9.74L10.11 9.74Q10.11 8.62 10.66 7.73L10.66 7.73L10.66 7.73Q11.21 6.83 12.19 6.33L12.19 6.33L12.19 6.33Q13.16 5.84 14.39 5.84L14.39 5.84L14.39 5.84Q15.62 5.84 16.60 6.33L16.60 6.33L16.60 6.33Q17.58 6.83 18.13 7.72L18.13 7.72L18.13 7.72Q18.68 8.61 18.68 9.74L18.68 9.74L18.68 9.74Q18.68 10.88 18.13 11.77L18.13 11.77L18.13 11.77Q17.58 12.67 16.60 13.17L16.60 13.17L16.60 13.17Q15.62 13.68 14.39 13.68L14.39 13.68ZM14.39 11.56L14.39 11.56Q15.09 11.56 15.54 11.08L15.54 11.08L15.54 11.08Q15.99 10.60 15.99 9.74L15.99 9.74L15.99 9.74Q15.99 8.90 15.54 8.43L15.54 8.43L15.54 8.43Q15.09 7.95 14.39 7.95L14.39 7.95L14.39 7.95Q13.69 7.95 13.24 8.43L13.24 8.43L13.24 8.43Q12.80 8.90 12.80 9.74L12.80 9.74L12.80 9.74Q12.80 10.60 13.24 11.08L13.24 11.08L13.24 11.08Q13.69 11.56 14.39 11.56L14.39 11.56ZM23.72 13.68L23.72 13.68Q22.50 13.68 21.52 13.17L21.52 13.17L21.52 13.17Q20.54 12.67 19.99 11.77L19.99 11.77L19.99 11.77Q19.43 10.88 19.43 9.74L19.43 9.74L19.43 9.74Q19.43 8.62 19.99 7.73L19.99 7.73L19.99 7.73Q20.54 6.83 21.51 6.33L21.51 6.33L21.51 6.33Q22.48 5.84 23.72 5.84L23.72 5.84L23.72 5.84Q24.95 5.84 25.93 6.33L25.93 6.33L25.93 6.33Q26.91 6.83 27.45 7.72L27.45 7.72L27.45 7.72Q28 8.61 28 9.74L28 9.74L28 9.74Q28 10.88 27.45 11.77L27.45 11.77L27.45 11.77Q26.91 12.67 25.93 13.17L25.93 13.17L25.93 13.17Q24.95 13.68 23.72 13.68L23.72 13.68ZM23.72 11.56L23.72 11.56Q24.42 11.56 24.86 11.08L24.86 11.08L24.86 11.08Q25.31 10.60 25.31 9.74L25.31 9.74L25.31 9.74Q25.31 8.90 24.86 8.43L24.86 8.43L24.86 8.43Q24.42 7.95 23.72 7.95L23.72 7.95L23.72 7.95Q23.02 7.95 22.57 8.43L22.57 8.43L22.57 8.43Q22.12 8.90 22.12 9.74L22.12 9.74L22.12 9.74Q22.12 10.60 22.57 11.08L22.57 11.08L22.57 11.08Q23.02 11.56 23.72 11.56L23.72 11.56ZM39.12 5.84L39.12 5.84Q40.52 5.84 41.35 6.68L41.35 6.68L41.35 6.68Q42.18 7.52 42.18 9.21L42.18 9.21L42.18 13.55L39.52 13.55L39.52 9.65L39.52 9.65Q39.52 8.85 39.22 8.47L39.22 8.47L39.22 8.47Q38.92 8.09 38.37 8.09L38.37 8.09L38.37 8.09Q37.77 8.09 37.41 8.51L37.41 8.51L37.41 8.51Q37.04 8.93 37.04 9.79L37.04 9.79L37.04 13.55L34.38 13.55L34.38 9.65L34.38 9.65Q34.38 8.09 33.24 8.09L33.24 8.09L33.24 8.09Q32.62 8.09 32.26 8.51L32.26 8.51L32.26 8.51Q31.89 8.93 31.89 9.79L31.89 9.79L31.89 13.55L29.23 13.55L29.23 5.96L31.77 5.96L31.77 6.76L31.77 6.76Q32.19 6.30 32.77 6.07L32.77 6.07L32.77 6.07Q33.35 5.84 34.03 5.84L34.03 5.84L34.03 5.84Q34.83 5.84 35.46 6.13L35.46 6.13L35.46 6.13Q36.09 6.43 36.48 7.03L36.48 7.03L36.48 7.03Q36.93 6.45 37.62 6.15L37.62 6.15L37.62 6.15Q38.30 5.84 39.12 5.84L39.12 5.84ZM46.62 13.68L46.62 13.68Q45.67 13.68 44.74 13.46L44.74 13.46L44.74 13.46Q43.82 13.24 43.26 12.89L43.26 12.89L44.06 11.07L44.06 11.07Q44.58 11.40 45.29 11.58L45.29 11.58L45.29 11.58Q46.00 11.77 46.70 11.77L46.70 11.77L46.70 11.77Q47.35 11.77 47.62 11.64L47.62 11.64L47.62 11.64Q47.89 11.51 47.89 11.26L47.89 11.26L47.89 11.26Q47.89 11.00 47.57 10.90L47.57 10.90L47.57 10.90Q47.24 10.79 46.52 10.70L46.52 10.70L46.52 10.70Q45.61 10.58 44.98 10.40L44.98 10.40L44.98 10.40Q44.34 10.22 43.88 9.73L43.88 9.73L43.88 9.73Q43.41 9.24 43.41 8.36L43.41 8.36L43.41 8.36Q43.41 7.63 43.85 7.06L43.85 7.06L43.85 7.06Q44.28 6.50 45.12 6.17L45.12 6.17L45.12 6.17Q45.95 5.84 47.11 5.84L47.11 5.84L47.11 5.84Q47.94 5.84 48.75 6.01L48.75 6.01L48.75 6.01Q49.56 6.17 50.11 6.48L50.11 6.48L49.31 8.29L49.31 8.29Q48.30 7.73 47.12 7.73L47.12 7.73L47.12 7.73Q46.49 7.73 46.20 7.87L46.20 7.87L46.20 7.87Q45.91 8.02 45.91 8.26L45.91 8.26L45.91 8.26Q45.91 8.53 46.23 8.63L46.23 8.63L46.23 8.63Q46.55 8.74 47.29 8.85L47.29 8.85L47.29 8.85Q48.23 8.99 48.85 9.17L48.85 9.17L48.85 9.17Q49.46 9.35 49.92 9.83L49.92 9.83L49.92 9.83Q50.37 10.32 50.37 11.19L50.37 11.19L50.37 11.19Q50.37 11.90 49.94 12.47L49.94 12.47L49.94 12.47Q49.50 13.03 48.66 13.36L48.66 13.36L48.66 13.36Q47.81 13.68 46.62 13.68L46.62 13.68ZM56.46 5.84L56.46 5.84Q57.88 5.84 58.74 6.68L58.74 6.68L58.74 6.68Q59.60 7.52 59.60 9.21L59.60 9.21L59.60 13.55L56.94 13.55L56.94 9.65L56.94 9.65Q56.94 8.09 55.69 8.09L55.69 8.09L55.69 8.09Q55.01 8.09 54.59 8.54L54.59 8.54L54.59 8.54Q54.18 8.99 54.18 9.88L54.18 9.88L54.18 13.55L51.52 13.55L51.52 3.16L54.18 3.16L54.18 6.66L54.18 6.66Q54.61 6.26 55.20 6.05L55.20 6.05L55.20 6.05Q55.79 5.84 56.46 5.84L56.46 5.84ZM64.50 5.84L64.50 5.84Q66.39 5.84 67.38 6.70L67.38 6.70L67.38 6.70Q68.38 7.56 68.38 9.34L68.38 9.34L68.38 13.55L65.90 13.55L65.90 12.57L65.90 12.57Q65.32 13.68 63.66 13.68L63.66 13.68L63.66 13.68Q62.78 13.68 62.13 13.37L62.13 13.37L62.13 13.37Q61.49 13.06 61.16 12.54L61.16 12.54L61.16 12.54Q60.83 12.01 60.83 11.34L60.83 11.34L60.83 11.34Q60.83 10.26 61.66 9.67L61.66 9.67L61.66 9.67Q62.48 9.07 64.20 9.07L64.20 9.07L65.72 9.07L65.72 9.07Q65.65 7.87 64.11 7.87L64.11 7.87L64.11 7.87Q63.56 7.87 63 8.04L63 8.04L63 8.04Q62.44 8.22 62.05 8.53L62.05 8.53L61.15 6.72L61.15 6.72Q61.78 6.30 62.69 6.07L62.69 6.07L62.69 6.07Q63.59 5.84 64.50 5.84L64.50 5.84ZM64.40 12.00L64.40 12.00Q64.86 12.00 65.21 11.77L65.21 11.77L65.21 11.77Q65.56 11.55 65.72 11.12L65.72 11.12L65.72 10.46L64.57 10.46L64.57 10.46Q63.41 10.46 63.41 11.23L63.41 11.23L63.41 11.23Q63.41 11.58 63.67 11.79L63.67 11.79L63.67 11.79Q63.94 12.00 64.40 12.00L64.40 12.00ZM72.59 6.87L72.59 6.87Q73.00 6.36 73.65 6.10L73.65 6.10L73.65 6.10Q74.30 5.84 75.14 5.84L75.14 5.84L75.14 8.23L75.14 8.23Q74.77 8.19 74.54 8.19L74.54 8.19L74.54 8.19Q73.68 8.19 73.20 8.65L73.20 8.65L73.20 8.65Q72.72 9.11 72.72 10.07L72.72 10.07L72.72 13.55L70.06 13.55L70.06 5.96L72.59 5.96L72.59 6.87ZM81.83 13.55L79.70 10.89L78.92 11.69L78.92 13.55L76.26 13.55L76.26 3.16L78.92 3.16L78.92 8.61L81.63 5.96L84.78 5.96L81.63 9.21L85.05 13.55L81.83 13.55Z"></path></g><defs data-v-fde0c5aa=""><linearGradient data-v-fde0c5aa="" gradientTransform="rotate(25)" id="84db8fb7-3696-4eec-a13d-9c09ae0c4fb2" x1="0%" y1="0%" x2="100%" y2="0%"><stop data-v-fde0c5aa="" offset="0%" stop-color="#006678" stop-opacity="1"></stop><stop data-v-fde0c5aa="" offset="100%" stop-color="#4FA8FF" stop-opacity="1"></stop></linearGradient></defs><g data-v-fde0c5aa="" id="4a6bff78-017d-4cca-a0d2-6e92a78670f3" stroke="none" fill="url(#84db8fb7-3696-4eec-a13d-9c09ae0c4fb2)" transform="matrix(0.3482043445110321,0,0,0.3482043445110321,35.20402929597735,132.62718780002004)"><path clip-rule="evenodd" d="M42.907 29.392c.293.537-.19.955.121 1.494 1.173-2.141 1.445-4.529 2.424-6.698.137 1.184-.03 2.398.385 3.659 2.606-1.977 5.463-3.48 8.146-5.257 1.09-.721 1.699-1.899 2.287-3.038 2.071-4.013 3.613-8.264 5.537-12.344 1.039-2.204 2.15-4.36 3.839-6.208-.663 1.919-1.345 3.832-1.985 5.758-1.185 3.559-2.266 7.143-2.862 10.861-.407 2.539-.13 5.014.46 7.479.069.29.16.574.283 1.005-1.623-.346-3.122-.575-4.561-1.007-.781-.234-1.375-.079-2.01.268-5.092 2.78-8.634 7.001-11.282 12.075-2.765 5.298-3.261 10.772-1.427 16.46.252.781.232 1.591.096 2.374-.211 1.214-.67 1.402-2.723 1.266-.06.458.295.697.537.971.584.658 1.195 1.417 2.188 1.209.985-.206 1.115-1.183 1.325-1.972.794-2.992.901-6.061.914-9.134.005-1.267.001-2.534.143-3.855 1.241 1.159 2.015 2.6 2.687 4.094 2.082 4.635 3.375 9.53 4.555 14.445.571 2.381 2.051 3.992 3.743 5.604.146-.468-.266-.613-.401-.885-.159-.319-.414-.592-.569-.914-.295-.612-.672-1.319-.164-1.908.545-.631 1.289-.247 1.878.049 2.398 1.204 4.603 2.731 6.756 4.318 8.988 6.625 16.445 14.674 22.259 24.212 1.508 2.474 1.314 1.845-.828 3.065-3.646 2.079-7.603 2.238-11.639 1.651-3.001-.437-5.977-1.007-8.901-1.833-1.052-.297-2.019-.644-2.833-1.432-.56-.543-1.286-.91-2.369-1.037.905.656 1.86.794 2.43 1.558-5.948 1.112-21.983-6.289-25.493-11.786.987-.043 1.911-.216 2.824-.449.915-.233 1.818-.051 2.749.048-1.025-.895-2.224-1.368-3.584-1.268-6.025.445-12.051.735-18.068-.072-1.999-.269-3.945-.768-6-1.74 4.426-1.377 8.53-2.882 12.477-4.79 1.853-.896 3.626-1.886 4.698-3.742.919.466 1.449 1.305 2.298 1.784-1.18-1.856-2.99-3.247-3.931-5.318-.24 1.279.229 2.601-.353 3.844-2.013-2.18-2.73-11.485-1.188-19.293 1.931-9.786 6.815-17.777 15.132-23.571zm-4.114 26.77c-3.339-6.651-2.363-13.1.732-19.481-.188.06-.287.121-.34.209-2.416 4.049-3.813 8.397-3.214 13.132.285 2.243.705 4.602 2.822 6.14zm29.901 37.493c4.174 3.498 13.055 4.806 16.021 2.334-5.585.734-10.751-.212-16.021-2.334zm-4.02-2.352c-2.171-1.574-3.744-4.299-6.952-3.583.251.524 1.171.2 1.399.819 1.001 2.707 3.348 2.601 5.553 2.764zm-17.498-6.154c-.761-1.949-.269-3.726.887-5.644-1.767 1.492-2.085 3.82-.887 5.644zm-4.819-8.359c-1.391 1.327-1.669 3.243-.699 4.805-.486-1.703-.052-3.258.699-4.805zm1.738 6.479c-.706-1.756.111-3.261.808-4.985-1.5 1.482-1.802 3.426-.808 4.985z"></path><path clip-rule="evenodd" d="M66.761 61.803c.724 1.915.603 6.253-.262 9.434l-6.271-4.439c3.004-.681 5.112-2.274 6.533-4.995z"></path></g><!----></svg>